<svg xmlns="http://www.w3.org/2000/svg" width="1440" height="960" viewBox="0 0 1440 960" role="img" aria-label="PR-5 brand identity visual QA board">
  <rect width="1440" height="960" fill="#f6f8fb"/>
  <rect x="56" y="56" width="1328" height="848" rx="36" fill="#fff" stroke="#d8e2ee"/>
  <text x="96" y="122" fill="#10233f" font-family="Inter, Arial, sans-serif" font-size="34" font-weight="800">PR-5 Brand Identity Visual QA</text>
  <text x="96" y="158" fill="#64748b" font-family="Inter, Arial, sans-serif" font-size="16" font-weight="600">Freight Back Office OS / Adwa Freight OS — logo, colors, typography, app chrome, auth, driver, and PDF foundations</text>
  <g transform="translate(96 204)">
    <rect width="574" height="164" rx="28" fill="#10233f"/>
    <image href="/brand/adwa-freight-os-horizontal-dark.svg" x="32" y="42" width="360" height="72"/>
    <text x="32" y="134" fill="#b8c7d9" font-family="Inter, Arial, sans-serif" font-size="14">Dark navigation / marketing header visibility</text>
  </g>
  <g transform="translate(730 204)">
    <rect width="558" height="164" rx="28" fill="#ffffff" stroke="#d8e2ee"/>
    <image href="/brand/adwa-freight-os-horizontal-light.svg" x="32" y="42" width="360" height="72"/>
    <text x="32" y="134" fill="#64748b" font-family="Inter, Arial, sans-serif" font-size="14">Light dashboard / invoice / email visibility</text>
  </g>
  <g transform="translate(96 424)">
    <text y="0" fill="#10233f" font-family="Inter, Arial, sans-serif" font-size="18" font-weight="800">Operational palette</text>
    <g transform="translate(0 28)"><rect width="140" height="96" rx="20" fill="#10233f"/><text x="16" y="60" fill="#fff" font-family="Inter, Arial, sans-serif" font-size="13" font-weight="700">Primary</text></g>
    <g transform="translate(160 28)"><rect width="140" height="96" rx="20" fill="#2f80ed"/><text x="16" y="60" fill="#fff" font-family="Inter, Arial, sans-serif" font-size="13" font-weight="700">Accent</text></g>
    <g transform="translate(320 28)"><rect width="140" height="96" rx="20" fill="#31c4b3"/><text x="16" y="60" fill="#10233f" font-family="Inter, Arial, sans-serif" font-size="13" font-weight="800">Route</text></g>
    <g transform="translate(480 28)"><rect width="140" height="96" rx="20" fill="#147d64"/><text x="16" y="60" fill="#fff" font-family="Inter, Arial, sans-serif" font-size="13" font-weight="700">Success</text></g>
    <g transform="translate(640 28)"><rect width="140" height="96" rx="20" fill="#b7791f"/><text x="16" y="60" fill="#fff" font-family="Inter, Arial, sans-serif" font-size="13" font-weight="700">Warning</text></g>
    <g transform="translate(800 28)"><rect width="140" height="96" rx="20" fill="#c2413d"/><text x="16" y="60" fill="#fff" font-family="Inter, Arial, sans-serif" font-size="13" font-weight="700">Danger</text></g>
  </g>
  <g transform="translate(96 626)">
    <rect width="380" height="180" rx="28" fill="#fff" stroke="#d8e2ee"/>
    <text x="28" y="48" fill="#2f80ed" font-family="Inter, Arial, sans-serif" font-size="11" font-weight="800" letter-spacing="3">AUTH EXPERIENCE</text>
    <text x="28" y="86" fill="#111827" font-family="Inter, Arial, sans-serif" font-size="28" font-weight="850">Premium sign-in</text>
    <text x="28" y="120" fill="#64748b" font-family="Inter, Arial, sans-serif" font-size="14">Branded logo placement, calmer messaging,</text>
    <text x="28" y="144" fill="#64748b" font-family="Inter, Arial, sans-serif" font-size="14">and accessible operational form controls.</text>
  </g>
  <g transform="translate(530 626)">
    <rect width="380" height="180" rx="28" fill="#fff" stroke="#d8e2ee"/>
    <text x="28" y="48" fill="#2f80ed" font-family="Inter, Arial, sans-serif" font-size="11" font-weight="800" letter-spacing="3">DRIVER PORTAL</text>
    <text x="28" y="86" fill="#111827" font-family="Inter, Arial, sans-serif" font-size="28" font-weight="850">Simple guided ops</text>
    <text x="28" y="120" fill="#64748b" font-family="Inter, Arial, sans-serif" font-size="14">Compact mark, mobile-safe nav, and</text>
    <text x="28" y="144" fill="#64748b" font-family="Inter, Arial, sans-serif" font-size="14">shared status and card language.</text>
  </g>
  <g transform="translate(964 626)">
    <rect width="324" height="180" rx="28" fill="#fff" stroke="#d8e2ee"/>
    <image href="/brand/adwa-mark-light.svg" x="28" y="36" width="64" height="64"/>
    <text x="112" y="68" fill="#111827" font-family="Inter, Arial, sans-serif" font-size="24" font-weight="850">PWA Icon</text>
    <text x="112" y="98" fill="#64748b" font-family="Inter, Arial, sans-serif" font-size="14">Maskable app-safe route mark</text>
  </g>
</svg>
